# xmcd
#
# Track frame offsets: 
#        175
#        13662
#        30512
#        43437
#        53117
#        66067
#        77975
#        102657
#        110212
#        122112
#        136935
#        148882
#        170195
#        186505
#        195500
#
# Disc length: 2723 seconds
#
# Revision: 3
# Processed by: cddbd v1.4PL0 Copyright (c) Steve Scherf et al.
# Submitted via: ExactAudioCopy v0.90b3
#
DISCID=eb0aa10f
DTITLE=Southern Culture on the Skids - Ditch Diggin'
DYEAR=1994
DGENRE=
TTITLE0=Too Much Pork For Just One Fork
TTITLE1=Put Your Teeth Up On The Window Sill
TTITLE2=Tunafish Every Day
TTITLE3=My House Has Wheels
TTITLE4=The Great Atomic Power
TTITLE5=The Little Things
TTITLE6=Jack The Ripper, Parts 1 and 2
TTITLE7=Chicken Shit Farmer
TTITLE8=The Fly That Rode From Buffalo
TTITLE9=Lordy, Lordy
TTITLE10=Mudbuggy
TTITLE11=Ditch Diggin'
TTITLE12=New Cooter Boogie
TTITLE13=Wig-Out
TTITLE14=Rumors Of Surf
EXTD=\t\t
EXTT0=
EXTT1=
EXTT2=
EXTT3=
EXTT4=
EXTT5=
EXTT6=
EXTT7=
EXTT8=
EXTT9=
EXTT10=
EXTT11=
EXTT12=
EXTT13=
EXTT14=
PLAYORDER=
